<?xml version="1.0" standalone="no"?>
<!DOCTYPE svg PUBLIC "-//W3C//DTD SVG 20010904//EN"
 "http://www.w3.org/TR/2001/REC-SVG-20010904/DTD/svg10.dtd">
<svg version="1.0" xmlns="http://www.w3.org/2000/svg"
 width="1280.000000pt" height="905.000000pt" viewBox="0 0 1280.000000 905.000000"
 preserveAspectRatio="xMidYMid meet">
<metadata>
Created by potrace 1.15, written by Peter Selinger 2001-2017
</metadata>
<g transform="translate(0.000000,905.000000) scale(0.100000,-0.100000)"
fill="#000000" stroke="none">
<path d="M5835 8235 l-25 -24 0 -283 c0 -240 2 -287 16 -306 15 -22 16 -22
323 -22 289 0 309 1 325 19 15 17 17 49 16 312 0 256 -3 295 -17 311 -15 17
-40 18 -315 18 l-299 0 -24 -25z m328 -158 c64 -29 127 -89 157 -147 29 -57
46 -156 30 -175 -18 -22 -50 -1 -50 34 0 82 -80 200 -163 240 -23 11 -66 23
-95 27 -56 7 -67 15 -58 41 9 23 110 12 179 -20z m-94 -97 c85 -24 161 -118
161 -197 0 -28 -3 -33 -25 -33 -20 0 -25 6 -31 38 -13 79 -90 151 -161 152
-25 0 -37 15 -29 35 6 17 37 19 85 5z m5 -146 c38 -37 3 -96 -50 -86 -59 11
-54 102 5 102 16 0 37 -7 45 -16z"/>
<path d="M4142 7704 c-18 -14 -39 -39 -47 -55 -15 -28 -17 -29 -94 -29 -64 0
-83 -4 -105 -21 l-26 -20 0 -350 c0 -332 1 -350 19 -368 19 -19 19 -21 0 -113
-11 -58 -19 -134 -19 -201 l0 -108 -50 51 c-30 31 -75 63 -116 82 -155 72
-356 20 -460 -120 -55 -76 -65 -124 -62 -318 l3 -169 32 -3 c27 -3 35 1 45 23
16 34 40 28 54 -14 15 -46 39 -61 96 -61 39 0 54 5 73 25 22 21 25 33 25 101
l0 77 40 -44 c31 -34 39 -52 40 -81 0 -54 27 -78 89 -78 35 0 56 6 76 22 25
19 38 22 124 19 115 -3 169 -17 196 -51 133 -172 316 -286 540 -339 103 -24
364 -81 370 -81 3 0 5 -4 5 -10 0 -5 -16 -10 -37 -10 -30 0 -44 -8 -90 -53
-41 -42 -53 -61 -53 -85 0 -40 -28 -47 -56 -14 -17 21 -23 23 -42 13 -21 -11
-22 -19 -22 -126 0 -104 2 -115 20 -125 16 -8 24 -6 42 12 31 31 46 31 53 -3
9 -38 40 -59 89 -59 l39 0 -64 -59 c-43 -40 -61 -63 -54 -69 31 -32 257 -101
355 -109 116 -9 145 3 266 113 57 51 109 94 115 94 13 0 60 -106 105 -235 39
-110 114 -388 114 -421 0 -11 -13 -33 -30 -49 -16 -16 -30 -38 -30 -49 0 -11
21 -42 47 -68 l47 -48 -22 -29 c-36 -49 -25 -75 35 -87 28 -5 32 -11 38 -51 3
-25 4 -47 1 -50 -3 -4 -23 -9 -43 -12 -25 -4 -41 -14 -49 -29 -11 -22 -14 -19
-52 50 -94 171 -266 365 -409 460 -39 26 -78 51 -87 54 -25 9 -20 17 34 49 56
33 70 58 46 84 -28 31 -195 131 -219 131 -30 0 -47 -18 -47 -51 0 -24 -5 -27
-56 -37 -31 -7 -81 -23 -112 -36 -49 -21 -77 -25 -194 -29 l-136 -4 -16 36
c-8 20 -20 69 -26 108 -5 40 -21 107 -34 149 l-25 77 68 66 c88 86 116 143
116 236 -1 81 -24 135 -77 180 -46 39 -89 55 -145 55 -53 0 -145 -37 -160 -65
-8 -14 -13 -13 -42 14 -110 103 -312 40 -361 -113 -17 -54 -7 -142 23 -202 14
-27 53 -76 87 -109 34 -33 90 -96 124 -140 35 -44 84 -99 109 -122 54 -50 161
-105 237 -123 53 -13 70 -23 70 -46 0 -16 -221 -38 -370 -37 -133 1 -236 18
-353 58 -52 18 -82 37 -132 83 -42 40 -82 67 -120 81 -31 12 -59 21 -63 21
-25 0 -167 185 -181 236 -9 31 -7 41 9 62 24 30 25 55 5 72 -14 11 -14 15 1
37 19 30 12 68 -17 83 -11 7 -73 11 -145 11 l-126 -1 7 79 c8 89 -2 121 -38
121 -34 0 -40 -8 -85 -101 -34 -70 -55 -99 -112 -152 l-70 -65 0 -75 0 -75
-62 -9 c-34 -4 -63 -14 -65 -20 -3 -7 33 -50 79 -96 87 -87 231 -190 311 -223
26 -10 46 -21 44 -24 -1 -3 -17 -36 -36 -73 -61 -122 -54 -277 17 -381 34 -49
52 -61 85 -52 42 10 42 37 0 113 -35 63 -38 74 -38 148 0 70 4 87 30 134 35
64 85 107 133 116 20 4 53 15 74 26 83 42 213 12 297 -70 95 -92 116 -227 55
-342 l-29 -54 -75 -6 c-42 -3 -86 -9 -98 -13 -21 -7 -22 -5 -22 56 0 54 4 66
25 87 27 25 34 85 15 122 -13 24 -61 49 -95 49 -34 0 -82 -25 -95 -49 -19 -37
-12 -96 15 -121 23 -22 25 -31 25 -109 l0 -86 -62 -34 c-121 -66 -298 -200
-298 -227 0 -30 324 -81 446 -71 124 11 281 75 432 178 66 45 108 59 125 43 3
-4 -30 -40 -74 -82 -44 -41 -100 -103 -124 -136 -89 -126 -175 -332 -205 -496
-7 -36 -18 -69 -24 -75 -7 -5 -21 -24 -31 -42 -10 -17 -26 -34 -34 -36 -9 -3
-24 -8 -33 -12 -16 -6 -18 1 -18 73 0 74 -2 81 -25 96 -13 9 -45 16 -70 16
-42 0 -53 6 -112 56 l-66 56 -87 -4 -86 -3 -60 -53 c-69 -59 -114 -70 -114
-28 0 39 -21 47 -112 44 l-83 -3 -10 -32 c-6 -22 -15 -33 -28 -33 -10 0 -29
-11 -42 -25 -25 -24 -25 -24 -25 -238 0 -202 1 -216 21 -241 l20 -26 271 0
270 0 -6 -22 c-29 -102 -75 -302 -70 -309 2 -5 30 3 62 17 105 48 95 72 87
-217 -7 -252 -7 -254 15 -282 l22 -27 365 2 366 3 16 25 c14 22 15 63 11 348
-5 306 -6 324 -24 338 -15 11 -59 14 -192 14 l-172 0 -7 98 c-26 345 50 692
206 932 93 143 250 275 387 322 57 20 87 23 202 23 122 0 143 -3 217 -28 46
-16 85 -32 88 -37 8 -13 -24 -40 -48 -40 -40 0 -165 -37 -201 -59 -72 -45
-122 -121 -162 -246 l-22 -70 -117 -5 c-167 -7 -155 21 -155 -355 l0 -304 26
-20 c26 -20 37 -21 400 -21 205 0 380 3 389 6 41 16 45 50 45 352 0 361 8 342
-141 342 -99 0 -114 6 -83 31 46 38 67 92 86 228 10 74 20 137 23 139 6 6 82
-40 151 -92 91 -68 258 -246 364 -388 93 -124 219 -317 227 -347 6 -25 -76
-55 -111 -41 -94 35 -195 -71 -204 -217 -4 -68 -6 -73 -28 -73 -36 0 -71 -20
-83 -47 -7 -16 -11 -125 -11 -322 0 -287 1 -299 21 -325 l20 -26 328 0 c320 0
328 0 347 21 16 18 20 42 24 168 l5 146 17 -55 c28 -87 66 -255 87 -380 33
-196 44 -346 44 -590 0 -388 -54 -734 -170 -1095 -43 -136 -76 -197 -127 -241
l-40 -34 628 0 c501 0 627 3 619 13 -5 6 -24 30 -42 53 -77 98 -190 510 -236
864 -26 194 -31 588 -10 790 19 191 52 376 94 540 31 119 114 377 125 387 3 4
19 -5 34 -20 31 -30 90 -57 124 -57 120 0 218 116 218 255 0 71 -14 88 -63 74
-21 -5 -53 -23 -71 -40 -19 -16 -36 -29 -40 -29 -3 0 -6 13 -6 30 0 23 8 35
34 52 18 12 44 38 57 57 22 32 24 45 26 168 2 130 2 133 32 177 l31 45 230 3
c223 3 230 4 252 26 22 22 23 29 28 270 l5 247 37 20 c20 11 40 17 43 13 4 -3
14 -66 24 -140 10 -73 26 -148 35 -166 40 -78 171 -175 328 -243 49 -22 93
-39 99 -39 12 0 12 53 -2 124 -6 32 -8 60 -5 63 3 3 19 -6 36 -20 66 -56 155
-55 221 0 37 31 68 95 69 138 0 23 7 35 30 48 17 10 30 25 30 33 0 28 18 13
58 -48 152 -234 235 -571 218 -888 -5 -101 -4 -122 6 -112 10 10 13 68 13 232
0 120 1 217 3 215 1 -1 20 -61 42 -132 43 -143 91 -270 121 -321 18 -31 19
-57 19 -477 l0 -443 26 -31 26 -31 322 0 c313 0 323 1 345 21 12 11 26 32 32
46 5 14 9 214 9 464 0 461 -2 483 -45 519 -14 12 -63 16 -238 20 l-219 5 -22
52 c-47 117 -138 197 -301 268 -63 27 -83 41 -94 65 -9 17 -20 29 -28 26 -8
-3 -14 8 -19 32 -33 196 -121 419 -219 557 -43 61 -177 195 -195 195 -6 0 -10
5 -10 10 0 6 17 10 37 10 28 0 54 -12 107 -49 82 -56 207 -120 284 -145 38
-13 53 -24 57 -39 3 -12 11 -51 19 -87 14 -64 14 -65 -8 -90 -51 -55 -60 -112
-26 -167 57 -94 205 -81 251 22 10 22 16 51 12 63 -5 20 -2 22 41 22 l46 0 0
-37 c0 -77 60 -133 142 -133 142 0 191 193 65 253 -29 14 -67 17 -210 17 -143
0 -177 3 -187 15 -10 12 -10 18 0 30 10 12 45 15 195 15 178 0 184 1 205 23
32 34 132 254 125 277 -8 26 -42 32 -197 29 l-138 -2 -93 51 c-121 67 -227
102 -309 102 -101 0 -209 -38 -290 -102 -29 -22 -55 -32 -106 -39 -67 -9 -71
-9 -143 26 -40 19 -79 35 -86 35 -7 0 -13 7 -13 16 0 9 -26 48 -57 86 -32 38
-64 77 -70 85 -29 37 -97 -41 -117 -134 -6 -28 -13 -33 -44 -38 -74 -12 -169
-45 -261 -90 -85 -41 -100 -46 -155 -43 l-61 3 56 33 c31 17 68 32 82 32 17 0
30 8 38 23 6 12 39 48 72 79 73 68 72 69 -52 93 -131 26 -293 31 -369 11 -79
-20 -207 -81 -295 -140 -67 -46 -91 -54 -101 -37 -9 13 135 163 212 221 92 69
227 137 319 161 118 30 275 34 538 14 272 -21 408 -16 546 19 130 33 227 76
332 147 79 53 94 59 139 59 38 0 64 -8 103 -30 161 -92 326 -69 514 73 126 96
241 211 224 228 -6 6 -66 13 -134 17 l-124 7 -2 102 c-2 80 -7 111 -22 142
-25 48 -83 98 -133 113 -31 9 -38 17 -48 54 -16 57 -69 117 -127 145 -120 58
-284 4 -344 -113 -16 -32 -19 -59 -19 -203 0 -183 -9 -220 -55 -230 -14 -3
-37 -8 -52 -11 -37 -8 -53 -22 -53 -48 0 -34 19 -46 72 -46 53 0 110 24 145
62 45 48 53 87 53 257 0 176 6 201 54 230 43 26 75 31 119 21 46 -10 82 -41
96 -81 10 -28 8 -30 -38 -54 -57 -28 -107 -85 -121 -135 -6 -19 -10 -94 -10
-165 l0 -130 -51 -62 c-102 -124 -300 -247 -471 -292 -104 -27 -265 -44 -347
-36 -334 30 -316 27 -302 53 6 11 31 23 63 31 71 15 172 64 224 106 57 47 164
184 263 335 l82 125 -38 3 c-21 2 -64 -1 -96 -6 -31 -5 -59 -7 -62 -4 -3 3 -5
71 -5 152 0 130 -2 149 -18 163 -16 15 -51 17 -289 17 -258 0 -271 -1 -297
-21 l-26 -20 0 -218 c0 -171 3 -221 14 -237 12 -16 30 -20 123 -24 87 -4 108
-8 108 -20 0 -12 -15 -16 -67 -18 -57 -2 -70 -6 -79 -24 -17 -33 19 -58 82
-58 45 0 49 -2 40 -18 -6 -11 -17 -61 -26 -113 -9 -52 -23 -110 -31 -129 l-15
-35 -192 0 c-169 0 -202 -3 -276 -23 -316 -86 -585 -329 -766 -692 -26 -52
-49 -97 -51 -99 -3 -3 -19 9 -36 27 l-32 32 22 29 c26 36 27 49 6 72 -15 17
-15 28 11 156 15 76 33 151 41 167 8 16 14 43 14 60 0 43 52 252 101 411 51
164 116 315 136 315 8 0 41 -25 73 -56 l59 -57 -19 -25 c-57 -71 24 -140 90
-77 23 22 31 24 54 15 38 -14 123 -13 203 5 103 21 283 87 283 102 0 4 -18 26
-40 48 l-40 41 20 39 c32 62 28 156 -10 222 -36 63 -85 102 -149 119 -133 34
-274 -62 -297 -203 -6 -35 -13 -42 -88 -88 -95 -58 -104 -62 -112 -40 -14 36
149 237 250 310 124 88 216 121 515 184 244 52 343 88 462 167 62 41 239 214
239 233 0 5 10 9 23 10 12 0 78 5 147 10 241 18 328 67 413 236 44 89 119 346
105 361 -3 3 -38 -11 -77 -30 -39 -20 -73 -36 -76 -36 -3 0 -5 114 -5 253 0
212 -2 256 -16 275 -15 22 -19 22 -240 22 -211 0 -225 -1 -244 -20 -19 -19
-20 -33 -20 -435 0 -392 1 -416 19 -434 10 -10 24 -20 31 -23 28 -9 -105 -203
-196 -288 -140 -130 -273 -186 -569 -240 -143 -26 -143 -26 -138 5 4 16 35 49
92 94 47 38 102 85 120 105 l35 36 88 0 c81 0 91 2 113 25 l25 24 0 239 c0
132 5 263 10 293 7 37 7 55 0 57 -5 2 -10 34 -10 71 0 54 -4 74 -21 95 l-20
26 -318 0 c-300 0 -318 -1 -338 -19 -19 -18 -21 -35 -28 -223 -4 -112 -5 -281
-3 -376 4 -214 3 -212 133 -212 92 0 95 -2 95 -68 0 -21 4 -53 10 -71 10 -37
-3 -106 -24 -127 -6 -6 -36 -16 -66 -23 -227 -54 -419 -192 -560 -402 -123
-184 -189 -346 -295 -722 -14 -50 -19 -57 -35 -52 -15 5 -34 -7 -75 -46 l-55
-52 -23 21 c-13 12 -32 22 -44 22 -19 0 -20 8 -27 245 -3 136 -4 250 -1 254 2
5 25 12 50 15 113 17 252 122 308 232 127 250 -37 539 -335 589 l-38 6 0 206
c0 203 0 207 24 238 l25 32 63 -13 c76 -16 177 -20 236 -10 l42 8 0 -51 c0
-50 -1 -51 -30 -51 -19 0 -40 -9 -55 -25 -25 -24 -25 -26 -25 -207 0 -150 3
-188 16 -206 15 -22 17 -22 285 -22 256 0 270 1 289 20 19 19 20 33 20 208 0
154 -3 192 -16 210 -15 21 -20 22 -211 22 l-195 0 3 79 c4 77 5 80 43 117 42
40 81 48 125 24 28 -14 61 -68 61 -98 0 -58 41 -80 75 -42 43 48 -29 191 -116
229 l-37 17 20 32 c19 30 24 32 78 32 88 0 103 17 101 110 -2 86 -20 123 -79
164 -60 41 -78 36 -96 -28 -16 -53 -29 -66 -67 -66 -16 0 -19 7 -19 44 0 28
-7 52 -19 67 -17 22 -21 22 -45 10 -23 -13 -26 -20 -26 -72 0 -50 -2 -57 -22
-63 -42 -11 -47 -6 -68 64 -11 39 -25 70 -31 70 -20 0 -85 -39 -113 -69 -25
-26 -30 -41 -34 -93 -4 -55 -9 -68 -37 -98 -18 -19 -60 -93 -94 -165 -33 -71
-65 -131 -71 -133 -7 -3 -10 126 -11 390 -1 216 -5 467 -8 558 l-6 165 -9
-250 -9 -250 -23 95 c-30 120 -76 211 -131 260 -41 36 -154 90 -188 90 -32 0
-12 17 34 29 53 13 97 51 88 75 -4 9 -21 22 -40 30 -44 18 -67 51 -67 95 0 45
-35 116 -68 140 -41 29 -96 41 -137 30 -71 -20 -134 -102 -135 -177 0 -44 -25
-79 -65 -92 -76 -25 -41 -87 60 -108 25 -5 46 -18 62 -39 l24 -31 -28 -14
c-15 -7 -29 -21 -31 -31 -5 -25 52 -75 101 -88 42 -11 77 -34 77 -51 0 -12
-85 -10 -117 4 -47 21 -89 56 -109 93 -10 19 -21 35 -24 35 -12 0 -73 -65 -81
-88 -5 -13 -9 -52 -9 -88 0 -105 -2 -104 249 -104 l209 0 43 -36 c66 -55 198
-114 255 -114 18 0 28 -9 38 -35 13 -30 14 -105 9 -510 -6 -472 -6 -475 -27
-480 -75 -17 -77 -16 -97 62 -10 40 -28 96 -40 125 -19 50 -21 71 -19 356 0
218 -3 308 -11 318 -9 11 -59 14 -255 14 -240 0 -243 0 -258 -22 -23 -32 -24
-564 -2 -594 12 -16 29 -20 100 -23 l85 -3 12 -37 c35 -109 121 -226 208 -282
l24 -15 -42 -54 c-52 -65 -70 -100 -87 -165 -42 -155 20 -321 157 -421 54 -40
163 -84 206 -84 l26 0 -7 -602 c-3 -332 -9 -666 -13 -743 l-7 -140 -21 125
c-17 102 -19 130 -9 155 6 17 18 85 25 152 15 146 10 158 -57 150 -37 -4 -43
-2 -48 17 -13 47 -9 51 43 48 73 -5 77 7 56 171 -10 73 -22 138 -27 145 -17
20 -55 14 -76 -12 l-19 -25 -41 42 c-23 24 -42 52 -42 63 0 36 -89 332 -136
453 -85 217 -180 366 -318 500 -42 40 -76 78 -76 85 0 30 -32 56 -68 56 -20 0
-57 10 -82 23 l-45 22 87 3 c75 2 89 6 98 22 8 14 8 26 0 40 -10 18 -21 20
-141 20 -126 0 -131 -1 -153 -25 -22 -24 -26 -25 -62 -13 -34 12 -39 18 -50
60 -8 34 -9 60 -2 90 15 64 12 206 -6 263 -14 46 -14 50 1 59 79 44 150 155
160 250 4 43 10 56 22 56 37 0 41 22 11 58 l-29 35 20 28 c11 16 24 31 29 34
5 3 7 12 3 20 -3 10 -20 15 -49 15 -24 0 -44 4 -44 10 0 5 -19 23 -42 40 -86
63 -219 27 -267 -72 -11 -24 -21 -59 -21 -77 0 -36 -23 -87 -42 -94 -7 -2 -38
15 -68 38 -75 57 -178 116 -185 106 -3 -5 0 -33 6 -62 5 -30 14 -88 18 -131 5
-42 18 -96 29 -120 11 -23 32 -72 47 -108 14 -36 42 -89 61 -119 48 -72 180
-208 254 -262 55 -40 83 -80 66 -96 -9 -9 -283 46 -387 78 -291 91 -509 336
-591 665 -19 75 -22 115 -21 249 0 100 6 181 15 215 l13 55 304 5 303 5 19 24
c19 23 20 40 17 368 l-3 345 -24 19 c-19 15 -39 19 -105 19 l-82 0 -17 35
c-35 74 -132 98 -195 49z m108 -94 c22 -40 -26 -80 -58 -48 -25 25 -6 68 30
68 9 0 22 -9 28 -20z m-170 -113 c0 -41 17 -47 136 -47 119 0 144 9 144 51 0
16 7 19 43 19 24 0 48 -5 55 -12 14 -14 17 -534 4 -556 -7 -9 -63 -12 -248
-10 l-239 3 -3 275 c-1 151 0 280 3 287 3 8 23 13 55 13 46 0 50 -2 50 -23z
m1500 -306 c6 -13 6 -22 1 -26 -9 -5 -31 24 -31 39 0 14 20 4 30 -13z m205
-12 c172 -42 256 -132 306 -330 21 -82 20 -109 -2 -67 -12 23 -81 115 -117
156 -11 12 -22 39 -26 60 -4 25 -17 49 -41 72 -34 33 -37 34 -50 17 -18 -25
-51 -14 -63 22 -8 22 -19 31 -49 38 -29 6 -39 14 -41 32 -3 18 0 22 15 17 10
-3 41 -11 68 -17z m35 -134 c0 -18 -76 -75 -100 -75 -18 0 -40 19 -40 35 0 6
15 16 34 23 18 7 41 21 51 32 13 15 22 17 36 9 11 -5 19 -16 19 -24z m2878
-127 c18 -18 16 -162 -2 -177 -9 -8 -54 -11 -136 -9 l-122 3 -18 70 c-10 39
-23 82 -29 98 l-11 27 153 0 c106 0 157 -4 165 -12z m-293 -145 c6 -38 5 -43
-12 -43 -34 0 -43 21 -43 100 0 42 3 80 8 84 8 9 35 -75 47 -141z m-2355 5
c22 -36 40 -71 40 -77 0 -25 -197 57 -234 98 l-19 21 38 0 c48 0 75 23 75 64
l1 31 30 -35 c16 -19 48 -65 69 -102z m2358 -140 c22 -22 8 -78 -19 -78 -13 0
-39 31 -39 45 0 14 26 45 39 45 4 0 12 -5 19 -12z m140 0 c18 -18 15 -65 -5
-73 -38 -14 -63 54 -29 77 15 10 20 10 34 -4z m146 -4 c20 -19 20 -35 2 -60
-12 -15 -18 -17 -33 -8 -22 14 -29 50 -13 70 16 18 25 18 44 -2z m-1894 -78
c0 -1 -5 -17 -11 -35 -15 -42 -43 -38 -47 7 -3 30 -1 32 27 32 17 0 31 -2 31
-4z m-160 -41 c0 -29 -34 -36 -44 -9 -8 21 1 34 25 34 14 0 19 -7 19 -25z
m-2997 -9 c54 -20 108 -60 136 -101 23 -34 52 -107 46 -113 -2 -2 -26 14 -54
37 -55 42 -191 127 -253 157 -21 10 -38 21 -38 26 0 13 122 8 163 -6z m1327
-30 c0 -8 -7 -19 -15 -26 -12 -10 -18 -10 -30 0 -18 15 -20 47 -2 53 17 6 47
-11 47 -27z m3950 16 c0 -69 -100 -324 -156 -397 -50 -66 -152 -108 -286 -118
-58 -4 -77 6 -37 18 11 4 60 33 109 66 83 55 92 59 147 59 93 0 97 8 95 185
l-2 145 58 29 c68 36 72 36 72 13z m-5362 -60 c57 -31 141 -85 188 -119 83
-62 84 -63 84 -107 0 -25 -4 -47 -9 -50 -17 -11 -41 6 -41 28 0 12 -7 32 -16
44 -12 18 -25 22 -70 22 -31 0 -64 -5 -74 -10 -12 -7 -21 -7 -25 0 -3 5 -15
15 -26 21 -19 9 -19 9 -10 -10 6 -11 16 -23 21 -26 13 -8 13 -145 0 -145 -14
0 -70 86 -70 108 0 11 -8 30 -18 43 -26 35 -41 72 -67 171 -32 120 -30 120
133 30z m3897 43 c19 -18 25 -35 25 -70 l0 -45 84 0 c65 0 87 -4 97 -16 12
-15 7 -23 -41 -65 -47 -43 -59 -49 -98 -49 l-45 0 5 -50 c3 -32 1 -54 -7 -60
-7 -5 -20 -28 -30 -50 -10 -22 -21 -40 -26 -40 -4 0 -17 15 -28 34 -19 31 -21
48 -21 216 0 157 2 186 17 202 22 24 39 23 68 -7z m953 -7 c22 -22 8 -78 -19
-78 -13 0 -39 31 -39 45 0 14 26 45 39 45 4 0 12 -5 19 -12z m140 0 c16 -16
15 -53 -3 -68 -29 -24 -63 25 -39 58 17 25 25 27 42 10z m146 -4 c9 -8 16 -19
16 -24 0 -12 -50 -41 -60 -35 -14 9 -12 49 2 63 16 16 23 15 42 -4z m-5254
-206 c0 -5 -17 -8 -38 -8 -48 0 -79 -22 -90 -63 -5 -18 -15 -32 -23 -32 -11 0
-15 17 -17 72 -4 97 11 146 61 200 l41 44 33 -103 c18 -57 33 -106 33 -110z
m3013 142 c20 0 37 -3 37 -8 0 -4 -20 -17 -44 -30 -23 -13 -74 -48 -111 -78
-38 -29 -70 -52 -72 -50 -6 5 76 167 95 189 15 16 16 16 37 -3 13 -13 35 -20
58 -20z m-1919 -21 c41 -27 78 -54 81 -60 4 -5 -26 -9 -73 -9 l-80 0 -7 46
c-3 26 -9 53 -12 60 -9 24 13 15 91 -37z m2266 6 c0 -22 -37 -55 -60 -55 -26
0 -78 -26 -108 -54 -27 -23 -62 -87 -62 -110 0 -28 -42 -40 -128 -39 -46 1
-108 7 -138 13 l-55 12 33 36 c52 59 142 134 210 175 l62 37 123 0 c103 0 123
-2 123 -15z m-970 -23 c0 -22 -7 -30 -30 -39 -24 -9 -30 -17 -30 -42 0 -28 3
-31 30 -31 28 0 30 -3 30 -35 0 -32 -2 -35 -29 -35 -22 0 -30 -5 -33 -21 -3
-18 -8 -16 -55 23 -56 47 -64 63 -33 71 16 4 20 14 20 49 0 66 20 88 81 88 47
0 49 -1 49 -28z m2555 -96 c-8 -38 -19 -46 -29 -20 -9 24 -8 31 10 49 22 21
27 14 19 -29z m309 28 c9 -8 16 -22 16 -29 0 -14 -26 -45 -39 -45 -14 0 -31
24 -31 45 0 21 17 45 31 45 4 0 15 -7 23 -16z m-1004 0 c0 -11 -23 -49 -34
-56 -6 -4 -20 -8 -30 -8 -17 0 -15 5 14 35 31 32 50 43 50 29z m870 -28 c0
-13 -7 -29 -16 -36 -12 -11 -18 -10 -31 3 -15 15 -15 18 2 37 24 27 45 25 45
-4z m-3782 -8 c7 -7 12 -23 12 -37 l0 -25 -30 29 c-29 27 -31 45 -6 45 6 0 17
-5 24 -12z m-31 -60 c39 -38 40 -48 11 -75 -43 -40 -138 -39 -138 2 0 13 77
105 89 105 3 0 20 -14 38 -32z m998 -79 c22 -27 26 -39 23 -88 -3 -55 -3 -56
-35 -59 l-33 -3 0 90 c0 50 4 91 9 91 5 0 21 -14 36 -31z m1900 11 c34 -13 49
-53 33 -88 -11 -22 -21 -28 -56 -30 -23 -2 -42 0 -42 3 0 3 9 24 20 45 27 53
19 51 -17 -5 -27 -44 -29 -45 -80 -45 -66 0 -67 16 -6 98 21 28 29 32 73 32
27 0 60 -4 75 -10z m925 -24 c-12 -15 -188 -106 -204 -106 -10 0 -3 32 19 83
l15 37 91 0 c79 0 90 -2 79 -14z m-4610 -93 c0 -6 -8 -9 -20 -6 -17 4 -20 13
-19 52 l1 46 19 -40 c10 -22 19 -45 19 -52z m4377 12 c-8 -22 -19 -41 -27 -43
-14 -5 -14 -5 15 50 23 47 29 43 12 -7z m-3740 -5 c42 -27 49 -36 53 -72 9
-73 69 -79 80 -8 6 43 27 49 41 13 6 -15 20 -45 31 -65 22 -44 80 -210 74
-215 -7 -8 -122 95 -196 175 -63 68 -153 202 -136 202 3 0 27 -14 53 -30z
m-593 -15 c3 -8 1 -15 -4 -15 -6 0 -10 7 -10 15 0 8 2 15 4 15 2 0 6 -7 10
-15z m-176 -12 c2 -8 -6 -13 -22 -13 -25 0 -33 10 -19 24 10 10 36 3 41 -11z
m1071 -61 c12 -58 15 -171 4 -197 -4 -12 -16 8 -38 66 -27 71 -30 86 -18 100
7 8 13 31 13 51 0 70 22 59 39 -20z m1909 -70 c16 -21 15 -54 -1 -76 -9 -12
-12 -36 -9 -68 l5 -49 -34 3 c-34 3 -34 3 -34 53 0 28 -6 60 -12 72 -18 31
-16 50 8 74 22 22 55 19 77 -9z m-873 -11 c16 -32 65 -195 65 -217 0 -8 -10
-19 -22 -24 -20 -8 -29 -2 -65 36 -24 25 -68 81 -98 123 -30 43 -62 84 -71 92
-29 24 35 -84 109 -184 62 -82 67 -92 52 -104 -44 -31 -165 78 -226 203 -21
44 -39 86 -39 92 0 9 39 12 140 12 l139 0 16 -29z m1525 -33 c0 -7 -8 -32 -17
-57 -14 -36 -18 -40 -24 -25 -4 11 -8 36 -8 57 -1 33 2 37 24 37 14 0 25 -5
25 -12z m160 4 c0 -17 -166 -159 -175 -150 -3 2 7 39 21 81 l26 77 64 0 c35 0
64 -4 64 -8z m-1520 -329 c0 -34 -1 -36 -16 -21 -13 12 -14 20 -5 37 16 30 21
26 21 -16z m161 -51 c10 -24 19 -46 19 -48 0 -2 -16 -4 -35 -4 l-35 0 0 68 c1
63 2 66 16 47 9 -11 25 -39 35 -63z m-330 -7 c-14 -39 -20 -45 -45 -45 -31 0
-30 4 23 63 35 38 41 34 22 -18z m509 -37 c0 -4 -10 -8 -23 -8 -17 0 -26 10
-39 46 l-16 47 39 -39 c21 -21 39 -42 39 -46z m-340 6 c0 -9 -12 -14 -35 -14
-37 0 -42 9 -25 41 10 18 12 18 35 3 14 -9 25 -23 25 -30z m2088 -136 l3 -117
-221 -3 c-122 -2 -228 1 -236 5 -11 6 -14 33 -14 116 0 59 3 111 7 115 4 3
108 5 232 4 l226 -3 3 -117z m-3174 95 c4 -9 2 -21 -3 -26 -15 -15 -41 0 -41
23 0 25 35 28 44 3z m-553 -44 c32 -22 64 -81 56 -103 -10 -25 -25 -19 -51 23
-13 21 -41 48 -61 60 -31 18 -35 24 -25 36 14 17 41 12 81 -16z m1434 -79 c0
-45 0 -45 -37 -48 l-38 -3 0 51 0 51 38 -3 c37 -3 37 -3 37 -48z m203 -3 l3
-48 -48 3 c-46 3 -48 4 -51 36 -5 54 2 64 50 60 l43 -3 3 -48z m205 32 c3 -12
3 -35 0 -50 -5 -27 -9 -29 -49 -29 l-44 0 0 50 0 50 44 0 c36 0 45 -4 49 -21z
m185 -31 l3 -48 -40 0 -41 0 0 51 0 50 38 -3 c37 -3 37 -3 40 -50z m839 24
c45 -32 66 -84 61 -149 -3 -29 -9 -58 -14 -63 -5 -5 -31 5 -63 25 -63 40 -127
63 -191 69 -41 3 -45 6 -42 27 4 32 32 69 73 97 44 31 129 28 176 -6z m-1845
-150 c37 -55 47 -77 39 -85 -9 -9 -16 -8 -29 1 -9 6 -47 30 -84 53 l-68 41 0
82 1 81 46 -50 c25 -27 68 -83 95 -123z m3796 54 c3 -77 -5 -94 -37 -77 -18
10 -21 21 -21 75 0 69 4 78 35 74 18 -3 20 -11 23 -72z m-4029 50 c7 -8 11
-27 9 -41 -3 -24 -8 -27 -49 -31 -26 -2 -66 -10 -90 -18 -24 -9 -68 -16 -96
-16 l-53 0 0 53 c0 30 3 57 7 60 3 4 64 7 133 7 99 0 130 -3 139 -14z m-11
-103 c-10 -2 -26 -2 -35 0 -10 3 -2 5 17 5 19 0 27 -2 18 -5z m1997 -32 c33
-15 71 -37 85 -49 23 -19 24 -22 9 -37 -42 -43 -150 -37 -201 12 -29 27 -58
79 -58 104 0 19 98 1 165 -30z m1181 24 c-9 -25 -106 -165 -171 -250 -82 -105
-149 -167 -221 -203 -63 -32 -142 -57 -151 -48 -7 7 51 110 98 174 l40 52 69
0 c75 0 103 15 98 54 -2 17 -11 22 -46 24 -43 3 -44 4 -26 23 13 15 30 19 75
19 75 0 99 26 99 106 0 60 2 61 89 63 43 1 52 -2 47 -14z m-2489 -52 c6 -21
15 -47 19 -58 6 -16 0 -14 -25 10 -18 17 -42 42 -53 58 l-19 27 33 0 c30 0 34
-4 45 -37z m173 -29 c0 -41 -4 -63 -10 -59 -11 7 -44 68 -54 103 -7 20 -4 22
28 22 l36 0 0 -66z m180 62 c0 -9 -32 -79 -50 -108 l-20 -33 0 73 0 72 35 0
c19 0 35 -2 35 -4z m170 -6 c0 -12 -79 -100 -90 -100 -4 0 1 25 13 55 18 49
23 55 48 55 16 0 29 -5 29 -10z m559 -44 c12 -36 12 -40 -12 -64 l-26 -26 -57
25 c-31 13 -56 29 -56 34 2 14 125 87 132 78 3 -5 12 -25 19 -47z m-1589 2
c28 -18 50 -35 50 -38 0 -9 -111 -51 -174 -65 -33 -8 -95 -17 -136 -21 -61 -6
-70 -9 -50 -16 32 -12 166 0 255 22 39 10 71 17 73 15 7 -7 -117 -103 -147
-113 -74 -26 -189 -9 -355 50 l-90 32 64 58 63 58 163 0 162 0 24 29 c26 34
30 33 98 -11z m2555 16 c0 -10 -8 -20 -18 -22 -22 -4 -35 27 -16 39 20 12 34
5 34 -17z m-536 -118 c13 -14 20 -29 17 -34 -8 -14 -177 -68 -250 -81 -67 -12
-142 -13 -169 -3 -15 7 -13 12 20 44 l38 36 78 -10 c93 -12 148 0 199 43 18
15 36 28 39 29 3 0 16 -11 28 -24z m634 -7 c-22 -22 -43 -19 -43 7 0 9 11 14
32 14 l32 0 -21 -21z m1646 5 c9 -8 -104 -117 -182 -175 -187 -141 -320 -169
-472 -103 l-40 18 75 12 c41 7 106 13 143 13 141 2 236 79 254 207 l6 46 106
-7 c58 -4 108 -9 110 -11z m-7037 -16 c4 -29 48 -53 144 -80 63 -17 110 -21
229 -22 l151 -2 37 -29 37 -30 -57 -18 c-64 -19 -105 -15 -247 24 -38 10 -71
17 -73 15 -7 -6 107 -47 165 -59 28 -6 52 -14 51 -17 -1 -10 -89 -70 -104 -70
-23 0 -155 72 -220 120 -66 48 -195 168 -195 182 0 4 18 8 39 8 33 0 40 -4 43
-22z m4234 12 c21 -8 25 -13 16 -22 -9 -9 -17 -7 -34 10 -25 25 -22 27 18 12z
m-3559 -159 c26 -35 -31 -16 -89 29 -48 37 -55 47 -46 63 5 10 7 26 3 34 -3 9
0 20 6 24 8 5 30 -17 63 -63 28 -39 57 -78 63 -87z m1071 42 c11 -38 23 -84
27 -103 l7 -35 -28 40 c-15 22 -43 59 -61 81 l-34 42 28 21 c15 11 31 21 34
21 3 0 16 -30 27 -67z m4612 -7 c0 -6 -19 -30 -42 -53 -30 -31 -50 -43 -71
-43 l-29 0 56 63 c31 34 56 67 56 72 1 13 30 -26 30 -39z m-4880 -21 c28 -25
55 -45 61 -45 5 0 29 18 53 40 l43 40 40 -58 c51 -74 96 -152 90 -158 -2 -2
-33 5 -68 15 -67 21 -145 65 -192 110 -34 31 -91 101 -83 101 3 0 28 -20 56
-45z m3788 14 c-13 -17 -38 -52 -56 -77 l-34 -47 7 40 c3 22 11 57 17 78 10
35 14 37 50 37 l39 0 -23 -31z m1152 -51 c17 -12 30 -25 30 -30 0 -4 -32 -8
-70 -8 l-70 0 32 30 c40 36 41 36 78 8z m-5143 -293 c107 -19 258 -19 483 0
96 8 203 15 236 15 l61 0 -24 -47 c-21 -41 -24 -59 -21 -125 3 -81 0 -88 -42
-88 -35 0 -32 -22 6 -61 82 -84 278 -199 399 -234 104 -31 243 -2 337 69 25
19 61 36 85 39 l42 7 51 -82 c63 -102 140 -259 140 -287 0 -11 4 -22 9 -25 19
-12 89 -238 125 -406 60 -276 86 -524 91 -865 4 -213 2 -272 -6 -245 -6 19
-29 97 -50 173 -219 780 -763 1550 -1235 1747 -198 82 -426 83 -599 0 -58 -28
-65 -29 -124 -19 -46 7 -77 20 -126 53 -35 25 -73 47 -85 51 -12 4 -19 10 -18
13 31 56 52 115 58 161 8 57 -3 159 -20 192 -6 10 -10 20 -10 22 0 3 34 -6 75
-19 42 -13 115 -31 162 -39z m1049 -31 c13 -3 24 -12 24 -20 0 -18 37 -36 60
-29 19 6 63 -12 112 -46 l26 -19 -19 -41 c-24 -47 -36 -54 -75 -38 -16 6 -81
14 -144 18 l-115 6 -3 53 c-3 51 -1 55 37 94 27 26 46 38 57 34 9 -3 27 -9 40
-12z m102 -214 c40 -15 41 -25 1 -39 -62 -22 -141 -7 -186 35 l-28 25 90 -5
c50 -3 105 -10 123 -16z m2452 -5 c46 -9 88 -19 92 -21 4 -3 -11 -21 -33 -41
-30 -27 -43 -33 -51 -25 -8 8 -69 12 -191 12 l-179 0 -29 -29 c-16 -16 -29
-37 -29 -45 0 -14 -17 -16 -115 -16 -67 0 -115 4 -115 10 0 26 249 150 343
170 56 12 202 5 307 -15z m-2840 -25 c0 -23 88 -104 145 -133 l60 -32 228 0
c125 0 227 -3 227 -7 0 -4 -29 -21 -64 -38 -76 -38 -169 -49 -243 -31 -105 27
-347 168 -402 234 -12 15 -10 17 18 17 17 0 31 -5 31 -10z m691 -27 c79 -87
83 -92 66 -98 -9 -4 -34 8 -61 29 -26 20 -54 40 -64 45 -14 8 -15 12 -2 35 7
14 16 26 20 26 3 0 22 -17 41 -37z m-1827 -44 c15 -18 25 -21 63 -15 38 5 54
1 94 -21 27 -14 49 -30 49 -35 0 -4 -47 -8 -104 -8 -113 0 -252 -16 -276 -31
-10 -7 -1 -9 30 -5 158 20 380 18 380 -3 0 -11 -145 -96 -232 -136 -123 -56
-185 -69 -313 -61 -96 5 -300 38 -312 49 -4 5 121 107 130 107 2 0 2 -11 -1
-25 -10 -53 1 -55 242 -55 234 0 246 2 246 46 0 41 -25 54 -106 54 -84 0 -88
4 -82 95 4 57 13 62 113 64 50 1 64 -3 79 -20z m5337 1 c35 -11 98 -38 139
-60 l75 -39 -106 -1 c-105 0 -107 0 -113 24 -12 49 -30 56 -141 56 -106 0
-109 -1 -138 -43 -10 -15 -24 -18 -67 -15 l-55 3 50 30 c113 68 236 83 356 45z
m-3555 -27 c24 -16 44 -31 44 -35 0 -5 -46 -8 -101 -8 l-101 0 48 34 c27 19
53 34 58 35 5 1 28 -11 52 -26z m-2086 -63 c0 -47 -14 -53 -101 -48 l-54 3 70
42 c39 23 73 42 78 43 4 0 7 -18 7 -40z m3652 -37 c26 -19 48 -37 48 -41 0 -3
-29 -36 -65 -73 -58 -60 -65 -71 -65 -108 0 -38 -2 -41 -28 -41 -21 0 -32 7
-40 25 -9 18 -19 25 -41 25 -52 0 -61 -27 -61 -175 0 -102 3 -135 16 -153 22
-32 61 -29 82 8 12 22 24 30 45 30 24 0 27 -4 27 -32 1 -40 17 -64 58 -81 l31
-13 -31 -47 c-17 -26 -36 -47 -42 -47 -7 0 -25 -13 -40 -29 l-28 -29 -26 30
c-19 21 -32 27 -45 22 -16 -6 -18 -19 -16 -138 2 -136 1 -141 -50 -226 -14
-23 -97 -217 -127 -296 -39 -103 -101 -302 -132 -423 l-27 -106 -3 75 c-4 91
14 512 28 653 28 275 100 612 175 812 43 115 119 270 177 362 l40 64 46 -7
c28 -4 65 -20 94 -41z m498 39 c0 -14 -115 -64 -140 -60 -12 1 -28 11 -34 21
-19 31 17 47 101 47 40 0 73 -4 73 -8z m540 -49 c76 -122 267 -288 362 -313
21 -6 38 -15 38 -20 0 -39 -56 -76 -98 -65 -15 4 -85 67 -166 150 -134 136
-144 144 -206 163 -36 12 -93 26 -127 33 -78 14 -88 33 -30 58 47 20 148 47
182 49 6 1 26 -24 45 -55z m-850 33 c0 -36 -12 -46 -57 -46 -30 0 -58 8 -82
23 l-36 22 60 6 c107 10 115 10 115 -5z m1084 -6 c70 -24 155 -71 182 -101 19
-22 19 -22 -3 -8 -20 12 -26 11 -52 -9 -17 -12 -36 -22 -43 -22 -8 0 -49 36
-93 80 -45 46 -73 80 -64 80 9 0 42 -9 73 -20z m541 -8 l70 -7 11 -51 c6 -29
14 -68 18 -88 l7 -35 -53 18 c-72 25 -149 64 -233 120 l-70 46 45 6 c44 7 62
6 205 -9z m-2401 -42 l-7 -43 -59 7 c-33 3 -64 8 -69 12 -13 8 -11 44 4 49 13
6 130 22 135 19 1 -1 0 -21 -4 -44z m-1754 -63 c0 -19 -84 -163 -123 -210 -19
-23 -55 -63 -80 -89 -45 -48 -46 -48 -111 -48 -36 0 -66 1 -66 3 0 18 38 124
60 167 52 103 112 144 265 179 55 13 55 13 55 -2z m3259 -15 c14 -6 10 -13
-27 -48 l-43 -41 -24 48 c-14 27 -25 52 -25 57 0 9 85 -2 119 -16z m591 -17
c13 -14 21 -25 18 -25 -2 0 -15 11 -28 25 -13 14 -21 25 -18 25 2 0 15 -11 28
-25z m-1302 -36 c4 -34 -20 -54 -47 -39 -20 10 -29 49 -14 64 4 4 19 6 33 4
19 -2 26 -10 28 -29z m-2544 -79 c-13 -86 -37 -134 -85 -175 -25 -20 -41 -25
-85 -25 -30 0 -54 2 -54 4 0 2 30 33 68 69 37 36 87 97 112 136 25 38 48 70
51 70 3 1 0 -35 -7 -79z m3154 33 c17 -27 33 -60 37 -74 15 -61 178 -187 182
-140 1 9 4 26 8 38 6 18 -3 33 -44 76 -53 56 -62 81 -35 91 24 9 46 -7 127
-97 l76 -83 17 -92 c9 -51 14 -95 11 -98 -7 -8 -161 65 -228 108 -67 43 -138
113 -154 153 -7 17 -16 53 -19 80 -4 28 -9 58 -12 68 -9 29 3 19 34 -30z
m-1958 17 c6 -11 8 -20 6 -20 -3 0 -10 9 -16 20 -6 11 -8 20 -6 20 3 0 10 -9
16 -20z m1370 -147 c0 -5 -20 -30 -45 -58 l-44 -50 -1 52 c0 32 5 53 13 56 19
8 77 8 77 0z m301 -3 c16 -9 19 -22 19 -78 0 -40 -5 -73 -12 -80 -8 -8 -60
-12 -166 -12 l-154 0 43 53 c102 124 105 127 182 127 37 0 77 -5 88 -10z
m-1216 -208 c-15 -86 -29 -159 -31 -161 -2 -2 -4 66 -4 152 0 127 3 157 14
157 7 0 20 7 27 16 23 28 22 0 -6 -164z m-305 13 c11 -76 19 -139 17 -141 -1
-2 -20 53 -40 123 -36 119 -37 127 -21 144 10 11 19 18 20 16 2 -2 13 -66 24
-142z m460 -17 c-35 -113 -54 -162 -46 -118 2 14 10 67 17 118 10 80 15 95 33
102 12 4 22 6 24 5 2 -2 -11 -50 -28 -107z m2600 77 c14 -16 5 -51 -14 -58
-17 -7 -56 19 -56 37 0 33 48 48 70 21z m370 0 c14 -16 5 -51 -14 -58 -17 -7
-56 19 -56 37 0 33 48 48 70 21z m-5205 -207 c126 -142 161 -178 175 -178 5 0
71 70 146 155 104 117 143 155 159 153 41 -6 27 -38 -59 -135 -47 -54 -86
-100 -86 -103 0 -3 32 -41 71 -85 89 -101 101 -118 93 -139 -10 -27 -29 -19
-74 32 -24 26 -64 69 -88 95 l-44 49 -47 -46 c-60 -60 -82 -59 -143 1 l-47 47
-59 -65 c-32 -35 -72 -79 -89 -98 -20 -23 -35 -32 -46 -28 -34 13 -17 49 68
143 l86 95 -28 33 c-15 18 -54 63 -85 98 -60 67 -74 108 -39 108 12 0 63 -50
136 -132z m-1437 -107 c8 -5 12 -17 10 -27 -3 -16 -14 -19 -74 -22 -56 -2 -74
1 -85 14 -11 14 -11 18 6 30 21 15 122 19 143 5z m389 -18 c46 -21 89 -74 97
-118 7 -36 5 -40 -41 -80 -27 -24 -57 -59 -68 -79 -23 -43 -60 -53 -126 -36
-90 24 -139 83 -139 168 0 128 147 204 277 145z m373 -148 c-7 -109 3 -324 15
-358 7 -15 -2 -17 -94 -17 l-101 0 31 62 c38 75 89 214 118 323 39 140 40 140
31 -10z m-81 21 c-11 -20 -23 -36 -25 -36 -2 0 -4 14 -4 30 0 23 6 33 23 39
30 12 31 9 6 -33z m5591 -7 c120 -64 195 -142 229 -240 l10 -30 -77 3 -77 3
-65 97 c-36 53 -80 124 -98 158 l-33 60 28 -11 c15 -5 52 -23 83 -40z m-5593
-86 c-15 -52 -27 -65 -27 -29 0 24 28 81 36 73 2 -1 -2 -21 -9 -44z m5570 -63
c37 -56 72 -107 77 -114 6 -8 0 -21 -18 -39 l-26 -26 -19 37 c-22 43 -93 242
-86 242 2 0 35 -45 72 -100z m-3502 35 c8 -18 15 -58 15 -89 l0 -56 -75 0 -75
0 0 68 c0 73 15 107 54 121 30 12 62 -6 81 -44z m-223 -60 l-3 -85 -40 0 -39
0 0 44 c0 74 29 126 69 126 14 0 15 -13 13 -85z m-2082 60 c-7 -9 -15 -13 -17
-11 -7 7 7 26 19 26 6 0 6 -6 -2 -15z m3650 -62 c0 -34 -1 -36 -16 -21 -10 10
-14 23 -9 37 10 34 25 24 25 -16z m-3514 -167 c-25 -43 -26 -44 -91 -48 -79
-5 -96 -19 -103 -86 -4 -48 -5 -49 -59 -76 l-55 -27 6 46 c4 25 19 89 34 143
l27 97 79 3 79 3 -27 -36 c-38 -50 -27 -54 12 -6 27 34 39 40 75 43 23 2 44 0
45 -5 2 -4 -8 -27 -22 -51z m2003 -30 c19 -23 10 -71 -13 -71 -29 0 -42 28
-28 59 13 29 24 32 41 12z m249 -40 c-2 -23 -8 -31 -23 -31 -15 0 -21 8 -23
34 -4 37 14 57 36 39 7 -6 12 -25 10 -42z m-468 -205 c0 -158 -3 -232 -11
-237 -24 -14 -29 28 -29 244 0 215 1 222 20 222 19 0 20 -7 20 -229z m4212
139 c9 -41 17 -79 18 -84 0 -14 -38 0 -116 45 -62 36 -74 47 -74 69 0 42 18
51 90 48 l64 -3 18 -75z m336 -219 c2 -208 -1 -298 -9 -307 -9 -11 -59 -14
-240 -14 -194 0 -230 2 -243 16 -14 13 -16 50 -16 250 0 129 3 234 6 234 4 0
30 -13 58 -29 68 -39 154 -72 160 -62 3 4 -5 54 -18 110 l-23 101 161 -2 161
-3 3 -294z m-5911 127 c52 -49 14 -128 -62 -128 -22 0 -46 5 -52 11 -17 17
-147 -42 -151 -68 -2 -16 9 -26 62 -48 56 -24 69 -26 97 -16 47 16 64 14 98
-15 59 -49 25 -134 -54 -134 -41 0 -95 44 -95 77 0 13 -19 26 -69 46 -58 24
-73 27 -91 17 -29 -16 -78 -5 -107 22 -31 29 -30 72 3 105 23 23 31 25 81 20
45 -5 68 -1 119 20 43 17 64 31 64 42 0 23 28 61 54 71 30 13 76 3 103 -22z
m5687 -564 c9 -8 16 -24 16 -34 0 -19 -25 -50 -41 -50 -14 0 -49 38 -49 54 0
14 36 46 52 46 3 0 14 -7 22 -16z"/>
<path d="M7238 5259 c-10 -5 -18 -19 -18 -30 0 -11 8 -22 18 -26 26 -9 53 -35
63 -60 10 -26 41 -30 59 -8 16 19 -1 63 -38 98 -33 31 -61 39 -84 26z"/>
<path d="M2962 3123 c-39 -19 -62 -59 -62 -105 0 -64 54 -108 133 -108 50 0
88 24 112 70 19 36 19 54 0 94 -29 62 -112 84 -183 49z m99 -79 c26 -31 -25
-70 -56 -44 -18 15 -19 47 -2 53 24 10 45 7 58 -9z"/>
<path d="M6658 7160 c-53 -16 -97 -51 -117 -94 -25 -51 -27 -99 -5 -163 47
-140 156 -184 245 -97 85 83 104 215 42 291 -44 56 -109 80 -165 63z"/>
<path d="M3252 4591 c-114 -39 -177 -126 -177 -241 1 -106 52 -178 106 -149
24 12 32 44 18 70 -37 70 -29 137 22 187 130 127 335 -21 252 -181 -17 -34 -9
-65 20 -76 58 -22 101 44 102 154 0 59 -4 77 -28 118 -34 57 -92 102 -160 122
-65 19 -90 19 -155 -4z"/>
<path d="M7885 3270 c-133 -29 -269 -104 -372 -206 -56 -55 -63 -66 -63 -101
0 -59 59 -128 183 -212 260 -177 547 -140 790 100 61 61 67 70 67 108 0 36 -7
49 -47 93 -81 86 -195 159 -313 200 -64 22 -187 31 -245 18z m180 -148 c70
-34 107 -90 108 -162 2 -99 -78 -179 -188 -188 -104 -9 -203 63 -220 159 -27
147 155 263 300 191z"/>
<path d="M7893 3060 c-61 -37 -79 -107 -43 -165 63 -102 219 -76 255 42 6 22
4 23 -40 17 -36 -5 -50 -3 -65 11 -26 24 -25 63 2 92 l21 23 -49 0 c-31 0 -61
-7 -81 -20z"/>
</g>
</svg>
